# xmcd
# 
# Track frame offsets:
#     150
#     18905
#     37814
#     54303
#     74381
#     100442
#     134300
#     155923
#     176800
#     197600
# 
# Disc length: 2826
# 
# Revision: 0
# Processed by: cddbd v1.5.2PL0 Copyright (c) Steve Scherf et al.
# Submitted via: fre:ac v1.0.31
# 
DISCID=860b080a
DTITLE=Marieluise Ritter - Trampolin Pinguin
DYEAR=0
DGENRE=Folk
TTITLE0=Prolog - Hölderlin und die Liederfrau
TTITLE1=Was gibts denn? Fiihisch!
TTITLE2=Kantine hat's schwer
TTITLE3=Besuch aus Australien
TTITLE4=Trampolin kriegt Fisch
TTITLE5=Allerlei Streiterei
TTITLE6=Praline kriegt ihn weich
TTITLE7=Schon wieder Fisch!
TTITLE8=Wer baut die Schneehöhle?
TTITLE9=Pinguinschlaflied und -hopsmusik
EXTD=
EXTT0=
EXTT1=
EXTT2=
EXTT3=
EXTT4=
EXTT5=
EXTT6=
EXTT7=
EXTT8=
EXTT9=
PLAYORDER=
